<?xml version="1.0" encoding="UTF-8"?>
<svg width="512" height="512" viewBox="0 0 512 512" fill="none" xmlns="http://www.w3.org/2000/svg">
  <g transform="translate(256, 256)">
    <!-- Main branches -->
    <g id="branch" fill="white">
      <!-- Center -->
      <circle cx="0" cy="0" r="20"/>
      <!-- Main branch -->
      <rect x="-8" y="-120" width="16" height="240" rx="8"/>
      <!-- Side crystals -->
      <path d="M-8 -100L-40 -120L-8 -140V-100Z"/>
      <path d="M8 -100L40 -120L8 -140V-100Z"/>
      <path d="M-8 -40L-40 -60L-8 -80V-40Z"/>
      <path d="M8 -40L40 -60L8 -80V-40Z"/>
      <path d="M-8 20L-40 0L-8 -20V20Z"/>
      <path d="M8 20L40 0L8 -20V20Z"/>
      <path d="M-8 80L-40 60L-8 40V80Z"/>
      <path d="M8 80L40 60L8 40V80Z"/>
    </g>
    <!-- Rotate the branch 6 times -->
    <use href="#branch" transform="rotate(60)"/>
    <use href="#branch" transform="rotate(120)"/>
    <use href="#branch" transform="rotate(180)"/>
    <use href="#branch" transform="rotate(240)"/>
    <use href="#branch" transform="rotate(300)"/>
  </g>
</svg> 