<svg xmlns="http://www.w3.org/2000/svg" xmlns:xlink="http://www.w3.org/1999/xlink" width="1000" zoomAndPan="magnify" viewBox="0 0 750 749.999995" height="1000" preserveAspectRatio="xMidYMid meet" version="1.0"><path fill="#fafaf9" d="M 559.847656 344.789062 C 562.667969 350.683594 566.5 356.292969 570.011719 361.796875 C 571.160156 363.601562 573.054688 366.667969 575.691406 370.996094 C 577.84375 374.519531 580.015625 378.746094 582.859375 381.742188 C 582.992188 381.882812 583.152344 381.953125 583.34375 381.960938 C 583.535156 381.964844 583.703125 381.902344 583.84375 381.773438 C 586.496094 379.3125 589.011719 376.777344 591.390625 374.164062 C 602.234375 362.25 611.207031 350.9375 621.707031 336.78125 C 632.710938 321.941406 642.972656 306.570312 654.039062 291.773438 C 654.734375 290.847656 655.191406 290.015625 654.996094 288.785156 C 653.234375 277.46875 650.382812 267.554688 648.152344 256.914062 C 647.984375 256.125 648.035156 254.84375 647.753906 253.851562 C 647.695312 253.65625 647.582031 253.503906 647.40625 253.398438 C 629.070312 242.242188 613.476562 233.996094 596.65625 224.046875 C 595.933594 223.621094 595.992188 223.402344 596.824219 223.394531 C 597.707031 223.382812 598.738281 223.539062 599.921875 223.867188 C 605.035156 225.28125 610.121094 226.796875 615.171875 228.40625 C 635.722656 234.941406 656.382812 241.113281 677.160156 246.917969 C 678.554688 247.308594 679.996094 247.519531 680.554688 249.054688 C 685.660156 262.925781 690.554688 276.871094 695.238281 290.898438 C 695.320312 291.144531 695.289062 291.375 695.140625 291.589844 C 690.46875 298.199219 685.671875 304.6875 681.121094 311.378906 C 662.40625 338.898438 643.363281 366.136719 624.238281 393.371094 C 619.132812 400.640625 613.160156 409.554688 607.363281 417.480469 C 606.449219 418.730469 605.242188 419.5625 603.742188 419.976562 C 575.933594 427.679688 548.089844 435.269531 520.214844 442.742188 C 511.8125 444.996094 506.117188 446.652344 503.121094 447.710938 C 501.601562 448.25 500.175781 449.414062 498.835938 451.199219 C 484.9375 469.71875 474.722656 483.414062 468.191406 492.285156 C 467.257812 493.542969 464.445312 499.046875 462.402344 499.714844 C 451.285156 503.34375 440.351562 507.390625 429.601562 511.84375 C 429.519531 511.878906 429.441406 511.871094 429.371094 511.816406 C 429.296875 511.765625 429.265625 511.691406 429.273438 511.601562 C 429.910156 503.113281 430.554688 494.625 431.203125 486.140625 C 432.46875 469.597656 432.78125 453.246094 433.898438 436.414062 C 433.914062 436.152344 434.050781 436.003906 434.308594 435.960938 C 438.464844 435.308594 442.570312 433.722656 446.710938 432.828125 C 448.949219 432.34375 451.191406 431.4375 453.488281 430.847656 C 461.265625 428.847656 469.003906 426.703125 476.699219 424.410156 C 478.414062 423.902344 480.195312 423.734375 481.835938 423.183594 C 484.761719 422.195312 488.191406 421.394531 490.707031 420.648438 C 499.378906 418.074219 510.214844 415.421875 516.867188 413.628906 C 527.410156 410.785156 538.023438 407.796875 548.710938 404.652344 C 548.996094 404.570312 549.125 404.378906 549.097656 404.085938 C 547.441406 386.621094 545.785156 369.0625 544.132812 351.402344 C 543.886719 348.769531 543.71875 346.035156 543.636719 343.195312 C 543.628906 342.9375 543.746094 342.757812 543.992188 342.65625 C 544.453125 342.464844 544.941406 342.199219 545.457031 341.855469 C 554.667969 335.71875 564.269531 330.300781 573.445312 324.0625 C 578.980469 320.304688 583.605469 317.777344 588.707031 314.808594 C 592.214844 312.765625 594.773438 311.515625 598.132812 310.285156 C 598.296875 310.226562 598.429688 310.21875 598.539062 310.253906 C 598.625 310.285156 598.679688 310.347656 598.691406 310.441406 C 598.707031 310.535156 598.675781 310.613281 598.601562 310.671875 C 585.632812 320.40625 573.753906 331.203125 561.890625 342.183594 C 561.015625 342.996094 560.355469 343.667969 559.917969 344.203125 C 559.773438 344.382812 559.75 344.578125 559.847656 344.789062 Z M 559.847656 344.789062 " fill-opacity="1" fill-rule="nonzero"/><path fill="#fafaf9" d="M 169.328125 381.203125 C 169.378906 381.238281 169.433594 381.253906 169.492188 381.242188 C 169.550781 381.234375 169.597656 381.203125 169.628906 381.152344 C 177.34375 368.984375 185.042969 356.851562 192.28125 344.433594 C 192.347656 344.316406 192.375 344.195312 192.351562 344.058594 C 192.332031 343.925781 192.273438 343.816406 192.175781 343.726562 L 157.90625 311.96875 C 157.777344 311.84375 157.796875 311.730469 157.964844 311.621094 C 158.152344 311.496094 158.421875 311.53125 158.765625 311.726562 C 163.945312 314.660156 169.078125 317.664062 174.167969 320.742188 C 186.144531 327.976562 197.933594 334.730469 209.546875 343.316406 C 209.710938 343.433594 209.804688 343.597656 209.820312 343.804688 C 209.890625 344.738281 209.882812 345.664062 209.796875 346.589844 C 208.695312 358.304688 207.484375 369.785156 206.386719 381.742188 C 205.722656 388.945312 204.917969 396.222656 203.976562 403.582031 C 203.953125 403.738281 203.984375 403.882812 204.066406 404.015625 C 204.152344 404.148438 204.265625 404.242188 204.417969 404.292969 C 205.96875 404.796875 207.5 405.261719 209.007812 405.6875 C 245.832031 416.0625 282.851562 425.816406 319.824219 435.5625 C 320.101562 435.636719 320.25 435.816406 320.265625 436.101562 C 321.472656 453.894531 322.539062 471.730469 323.472656 489.613281 C 323.867188 497.183594 324.460938 504.117188 325.167969 511.324219 C 325.171875 511.394531 325.160156 511.460938 325.132812 511.523438 C 325.105469 511.589844 325.0625 511.640625 325.007812 511.683594 C 324.949219 511.726562 324.886719 511.75 324.820312 511.757812 C 324.75 511.769531 324.683594 511.757812 324.621094 511.734375 C 315.929688 508.203125 307.238281 504.78125 298.550781 501.464844 C 296.179688 500.5625 291.882812 499.226562 290.390625 497.117188 C 281.789062 484.933594 271.429688 472.144531 263.671875 462.253906 C 261.191406 459.09375 257.09375 454.339844 254.050781 450.171875 C 252.234375 447.6875 246.359375 446.390625 243.464844 445.574219 C 212.371094 436.804688 181.253906 428.109375 150.136719 419.429688 C 147.207031 418.617188 143.914062 414.355469 140.796875 410.144531 C 117.429688 378.53125 95.136719 346.09375 72.542969 313.933594 C 67.734375 307.09375 62.074219 298.582031 56.636719 291.058594 C 56.289062 290.589844 56.214844 290.078125 56.40625 289.527344 C 61.179688 275.597656 65.742188 261.4375 71.789062 247.980469 C 71.898438 247.746094 72.078125 247.59375 72.332031 247.527344 C 75.578125 246.671875 78.847656 245.742188 82.144531 244.738281 C 82.996094 244.484375 83.785156 244.464844 84.585938 244.171875 C 87.453125 243.125 89.921875 242.339844 91.988281 241.8125 C 115.484375 235.816406 133.570312 230.066406 154.1875 223.457031 C 154.414062 223.386719 154.566406 223.390625 154.648438 223.46875 C 154.738281 223.5625 154.777344 223.671875 154.757812 223.804688 C 154.742188 223.933594 154.675781 224.03125 154.558594 224.097656 C 137.871094 233.382812 121.167969 242.730469 104.96875 252.84375 C 104.679688 253.023438 104.511719 253.28125 104.46875 253.621094 C 104.027344 256.800781 103.410156 260.035156 102.609375 263.316406 C 100.535156 271.820312 98.566406 280.226562 96.710938 288.53125 C 96.574219 289.144531 96.675781 289.714844 97.019531 290.242188 C 99.558594 294.132812 102.136719 297.933594 104.757812 301.644531 C 117.894531 320.234375 131.558594 338.425781 145.753906 356.21875 C 151.386719 363.273438 156.703125 369.242188 162.738281 375.304688 C 164.832031 377.410156 167.027344 379.375 169.328125 381.203125 Z M 169.328125 381.203125 " fill-opacity="1" fill-rule="nonzero"/></svg>